<svg width="28" height="28" viewBox="0 0 28 28" fill="none" xmlns="http://www.w3.org/2000/svg">
  <rect x="3.2" y="5.2" width="21.6" height="17.6" rx="6" fill="rgba(255,255,255,0.2)" stroke="#FFFFFF" stroke-width="1.8"/>

  <circle cx="7.2" cy="14" r="1.6" fill="#FF6B8A"/>
  <circle cx="20.8" cy="14" r="1.6" fill="#FF6B8A"/>

  <path d="M11 13.2C11.6 12.3 12.7 11.8 14 11.8C15.3 11.8 16.4 12.3 17 13.2" stroke="#FFFFFF" stroke-width="1.5" stroke-linecap="round"/>
  <path d="M11.3 16.3C12.1 17.2 13 17.6 14 17.6C15 17.6 15.9 17.2 16.7 16.3" stroke="#FFFFFF" stroke-width="1.5" stroke-linecap="round"/>

  <path d="M22.6 7.1L23.5 8.8L25.4 9.1L24.1 10.4L24.4 12.3L22.6 11.4L20.9 12.3L21.2 10.4L19.8 9.1L21.8 8.8L22.6 7.1Z" fill="#FFD86B"/>
</svg>
